<svg id="Group_13130" data-name="Group 13130" xmlns="http://www.w3.org/2000/svg" width="60" height="60" viewBox="0 0 60 60">
  <defs>
    <style>
      .cls-1 {
        fill: #003575;
      }
    </style>
  </defs>
  <path id="Path_3114" data-name="Path 3114" class="cls-1" d="M314.8,337.188H290.193a6.251,6.251,0,0,0-6.209,6.28v23.72a.629.629,0,0,1-.629.629H278.24a6.112,6.112,0,0,0-4.252,1.717l-.027.026-1.672,1.488a.63.63,0,0,1-.419.16.627.627,0,0,1-.627-.629v-3.39a1.288,1.288,0,0,0-1.287-1.286H262.3a1.287,1.287,0,0,0-1.286,1.286V395.9a1.287,1.287,0,0,0,1.286,1.286h7.657a1.288,1.288,0,0,0,1.287-1.286v-2.2a.625.625,0,0,1,.32-.548.618.618,0,0,1,.307-.08.631.631,0,0,1,.329.093,13.505,13.505,0,0,0,7.328,2.111,9.937,9.937,0,0,0,4.7-1.092.628.628,0,0,1,.811.213,6.165,6.165,0,0,0,5.157,2.793H314.8a6.251,6.251,0,0,0,6.209-6.28V343.468A6.251,6.251,0,0,0,314.8,337.188Zm-46.135,56.8a.628.628,0,0,1-.629.629h-3.828a.628.628,0,0,1-.629-.629V369.1a.629.629,0,0,1,.629-.629h3.828a.629.629,0,0,1,.629.629Zm16.7-3.635c-1.733,1.313-3.1,2.35-5.842,2.35a11.951,11.951,0,0,1-7.4-2.671c-.214-.149-.41-.28-.61-.413a.626.626,0,0,1-.278-.522V375.7a.624.624,0,0,1,.21-.469l4.285-3.818a3.591,3.591,0,0,1,2.5-1.028h5.116a.63.63,0,0,1,.629.629v7.657a.629.629,0,0,1-.629.629h-1.915a1.286,1.286,0,0,0,0,2.572h17.284a2.451,2.451,0,0,1,2.487,2.467,2.589,2.589,0,0,1-2.487,2.618h-3.893A13.946,13.946,0,0,0,285.369,390.352Zm33.072.556a3.677,3.677,0,0,1-3.637,3.708H290.193a3.624,3.624,0,0,1-3.019-1.665.626.626,0,0,1,.147-.847,11,11,0,0,1,7.52-2.573h3.884a4.943,4.943,0,0,0,3.719-1.7.632.632,0,0,1,.469-.211h14.9a.628.628,0,0,1,.629.629Zm0-6.491a.628.628,0,0,1-.629.627H304.405a.628.628,0,0,1-.447-.187.635.635,0,0,1-.181-.449c0-.033,0-.064.008-.1a5.056,5.056,0,0,0-5.059-5.01h-11.54a.628.628,0,0,1-.629-.629V343.468a3.676,3.676,0,0,1,3.637-3.706H314.8a3.676,3.676,0,0,1,3.637,3.706Z" transform="translate(-261.013 -337.188)"/>
  <path id="Path_3115" data-name="Path 3115" class="cls-1" d="M284.76,345.376H303.9a1.286,1.286,0,1,0,0-2.572H284.76a1.286,1.286,0,1,0,0,2.572Z" transform="translate(-252.845 -335.146)"/>
  <path id="Path_3116" data-name="Path 3116" class="cls-1" d="M294.842,347.015a12.771,12.771,0,1,0,12.772,12.772A12.785,12.785,0,0,0,294.842,347.015Zm0,22.97a10.2,10.2,0,1,1,10.2-10.2A10.21,10.21,0,0,1,294.842,369.985Z" transform="translate(-253.356 -333.615)"/>
  <path id="Path_3117" data-name="Path 3117" class="cls-1" d="M299.2,357.152l-9.569-5.742a1.306,1.306,0,0,0-.667-.184,1.274,1.274,0,0,0-.63.168,1.288,1.288,0,0,0-.653,1.118V364a1.287,1.287,0,0,0,1.949,1.1l9.57-5.744a1.285,1.285,0,0,0,0-2.205Zm-4.058,1.642-3.937,2.36a.628.628,0,0,1-.952-.539v-4.722a.628.628,0,0,1,.952-.539l3.937,2.362a.628.628,0,0,1,0,1.077Z" transform="translate(-251.314 -332.083)"/>
</svg>
