<svg xmlns="http://www.w3.org/2000/svg" width="25" height="25" viewBox="0 0 25 25">
  <defs>
    <style>
      .cls-1 {
        fill: #00bf6f;
        fill-rule: evenodd;
      }
    </style>
  </defs>
  <path id="logo-whatsapp" class="cls-1" d="M53.358,35.632a12.425,12.425,0,0,0-19.591,14.95L32,57l6.6-1.723a12.479,12.479,0,0,0,5.949,1.507h.005A12.437,12.437,0,0,0,57,44.395,12.287,12.287,0,0,0,53.358,35.632Zm-8.805,19.06h0a10.365,10.365,0,0,1-5.266-1.435l-.378-.223-3.916,1.022,1.045-3.8-.246-.391a10.355,10.355,0,1,1,8.764,4.826Zm5.675-7.711c-.311-.155-1.842-.9-2.125-1.007s-.493-.155-.7.155-.8,1-.985,1.214-.363.232-.674.077a8.507,8.507,0,0,1-2.5-1.536,9.335,9.335,0,0,1-1.73-2.144c-.181-.31-.02-.478.136-.632.14-.139.311-.362.467-.542a2.094,2.094,0,0,0,.311-.517.568.568,0,0,0-.026-.542c-.078-.155-.7-1.679-.959-2.3-.253-.6-.509-.522-.7-.531s-.391-.011-.6-.011a1.146,1.146,0,0,0-.829.387,3.469,3.469,0,0,0-1.089,2.583,6.023,6.023,0,0,0,1.27,3.2,13.828,13.828,0,0,0,5.313,4.674,18.031,18.031,0,0,0,1.773.652,4.282,4.282,0,0,0,1.959.123,3.2,3.2,0,0,0,2.1-1.472,2.584,2.584,0,0,0,.181-1.472C50.746,47.213,50.538,47.135,50.227,46.981Z" transform="translate(-32 -31.999)"/>
</svg>
